<mxfile host="app.diagrams.net" modified="2023-06-06T12:02:12.291Z" agent="Mozilla/5.0 (Windows NT 10.0; Win64; x64) AppleWebKit/537.36 (KHTML, like Gecko) Chrome/114.0.0.0 Safari/537.36" etag="R6ldHmKFkU68-RDHVnsS" version="21.3.7" type="device">
  <diagram name="Page-1" id="ZN7jntYnKhZRv-6-pRfY">
    <mxGraphModel dx="2559" dy="919" grid="1" gridSize="10" guides="1" tooltips="1" connect="1" arrows="1" fold="1" page="1" pageScale="1" pageWidth="850" pageHeight="1100" math="0" shadow="0">
      <root>
        <mxCell id="0" />
        <mxCell id="1" parent="0" />
        <mxCell id="zpItI6iiQwFAYe5-tHFR-2" value="Catalog DB&lt;br&gt;" style="image;aspect=fixed;perimeter=ellipsePerimeter;html=1;align=center;shadow=0;dashed=0;spacingTop=3;image=img/lib/active_directory/databases.svg;" parent="1" vertex="1">
          <mxGeometry x="488" y="160" width="50" height="49" as="geometry" />
        </mxCell>
        <mxCell id="zpItI6iiQwFAYe5-tHFR-3" value="" style="endArrow=classic;html=1;rounded=0;" parent="1" edge="1">
          <mxGeometry width="50" height="50" relative="1" as="geometry">
            <mxPoint x="428" y="184" as="sourcePoint" />
            <mxPoint x="488" y="184" as="targetPoint" />
          </mxGeometry>
        </mxCell>
        <mxCell id="zpItI6iiQwFAYe5-tHFR-4" value="&lt;b&gt;Catalog API&lt;/b&gt;" style="rounded=1;whiteSpace=wrap;html=1;fillColor=#dae8fc;strokeColor=#6c8ebf;" parent="1" vertex="1">
          <mxGeometry x="308" y="154.5" width="120" height="60" as="geometry" />
        </mxCell>
        <mxCell id="zpItI6iiQwFAYe5-tHFR-6" value="&lt;b&gt;Identity Server&lt;/b&gt;" style="rounded=1;whiteSpace=wrap;html=1;fillColor=#dae8fc;strokeColor=#6c8ebf;" parent="1" vertex="1">
          <mxGeometry x="308" y="70" width="120" height="60" as="geometry" />
        </mxCell>
        <mxCell id="zpItI6iiQwFAYe5-tHFR-7" value="Identity DB" style="image;aspect=fixed;perimeter=ellipsePerimeter;html=1;align=center;shadow=0;dashed=0;spacingTop=3;image=img/lib/active_directory/databases.svg;" parent="1" vertex="1">
          <mxGeometry x="488" y="78.5" width="50" height="49" as="geometry" />
        </mxCell>
        <mxCell id="zpItI6iiQwFAYe5-tHFR-8" value="" style="endArrow=classic;html=1;rounded=0;" parent="1" edge="1">
          <mxGeometry width="50" height="50" relative="1" as="geometry">
            <mxPoint x="428" y="99.5" as="sourcePoint" />
            <mxPoint x="488" y="99.5" as="targetPoint" />
          </mxGeometry>
        </mxCell>
        <mxCell id="zpItI6iiQwFAYe5-tHFR-9" value="Basket DB" style="image;aspect=fixed;perimeter=ellipsePerimeter;html=1;align=center;shadow=0;dashed=0;spacingTop=3;image=img/lib/active_directory/databases.svg;" parent="1" vertex="1">
          <mxGeometry x="490" y="335.5" width="50" height="49" as="geometry" />
        </mxCell>
        <mxCell id="zpItI6iiQwFAYe5-tHFR-10" value="" style="endArrow=classic;html=1;rounded=0;" parent="1" edge="1">
          <mxGeometry width="50" height="50" relative="1" as="geometry">
            <mxPoint x="430" y="359.5" as="sourcePoint" />
            <mxPoint x="490" y="359.5" as="targetPoint" />
          </mxGeometry>
        </mxCell>
        <mxCell id="zpItI6iiQwFAYe5-tHFR-11" value="&lt;b&gt;Basket API&lt;/b&gt;" style="rounded=1;whiteSpace=wrap;html=1;fillColor=#dae8fc;strokeColor=#6c8ebf;" parent="1" vertex="1">
          <mxGeometry x="310" y="330" width="120" height="60" as="geometry" />
        </mxCell>
        <mxCell id="zpItI6iiQwFAYe5-tHFR-12" value="Inventory DB" style="image;aspect=fixed;perimeter=ellipsePerimeter;html=1;align=center;shadow=0;dashed=0;spacingTop=3;image=img/lib/active_directory/databases.svg;" parent="1" vertex="1">
          <mxGeometry x="490" y="245.5" width="50" height="49" as="geometry" />
        </mxCell>
        <mxCell id="zpItI6iiQwFAYe5-tHFR-13" value="" style="endArrow=classic;html=1;rounded=0;" parent="1" edge="1">
          <mxGeometry width="50" height="50" relative="1" as="geometry">
            <mxPoint x="430" y="269.5" as="sourcePoint" />
            <mxPoint x="490" y="269.5" as="targetPoint" />
          </mxGeometry>
        </mxCell>
        <mxCell id="zpItI6iiQwFAYe5-tHFR-14" value="&lt;b&gt;Inventory API&lt;/b&gt;" style="rounded=1;whiteSpace=wrap;html=1;fillColor=#dae8fc;strokeColor=#6c8ebf;" parent="1" vertex="1">
          <mxGeometry x="310" y="240" width="120" height="60" as="geometry" />
        </mxCell>
        <mxCell id="zpItI6iiQwFAYe5-tHFR-15" value="Payment DB" style="image;aspect=fixed;perimeter=ellipsePerimeter;html=1;align=center;shadow=0;dashed=0;spacingTop=3;image=img/lib/active_directory/databases.svg;" parent="1" vertex="1">
          <mxGeometry x="490" y="425.5" width="50" height="49" as="geometry" />
        </mxCell>
        <mxCell id="zpItI6iiQwFAYe5-tHFR-16" value="" style="endArrow=classic;html=1;rounded=0;" parent="1" edge="1">
          <mxGeometry width="50" height="50" relative="1" as="geometry">
            <mxPoint x="430" y="449.5" as="sourcePoint" />
            <mxPoint x="490" y="449.5" as="targetPoint" />
          </mxGeometry>
        </mxCell>
        <mxCell id="zpItI6iiQwFAYe5-tHFR-17" value="&lt;b&gt;Payment API&lt;/b&gt;" style="rounded=1;whiteSpace=wrap;html=1;fillColor=#dae8fc;strokeColor=#6c8ebf;" parent="1" vertex="1">
          <mxGeometry x="310" y="420" width="120" height="60" as="geometry" />
        </mxCell>
        <mxCell id="zpItI6iiQwFAYe5-tHFR-23" value="" style="image;sketch=0;aspect=fixed;html=1;points=[];align=center;fontSize=12;image=img/lib/mscae/Docker.svg;" parent="1" vertex="1">
          <mxGeometry x="308" y="10" width="50" height="41" as="geometry" />
        </mxCell>
        <mxCell id="zpItI6iiQwFAYe5-tHFR-24" value="" style="image;sketch=0;aspect=fixed;html=1;points=[];align=center;fontSize=12;image=img/lib/mscae/Kubernetes.svg;" parent="1" vertex="1">
          <mxGeometry x="375" y="10" width="50" height="48" as="geometry" />
        </mxCell>
        <mxCell id="zpItI6iiQwFAYe5-tHFR-26" value="Message&lt;br&gt;Broker" style="rounded=0;whiteSpace=wrap;html=1;fillColor=#ffe6cc;strokeColor=#d79b00;" parent="1" vertex="1">
          <mxGeometry x="590" y="70" width="80" height="410" as="geometry" />
        </mxCell>
        <mxCell id="zpItI6iiQwFAYe5-tHFR-28" value="" style="endArrow=classic;html=1;rounded=0;entryX=-0.03;entryY=0.218;entryDx=0;entryDy=0;entryPerimeter=0;" parent="1" target="zpItI6iiQwFAYe5-tHFR-26" edge="1">
          <mxGeometry width="50" height="50" relative="1" as="geometry">
            <mxPoint x="430" y="160" as="sourcePoint" />
            <mxPoint x="490" y="160" as="targetPoint" />
          </mxGeometry>
        </mxCell>
        <mxCell id="zpItI6iiQwFAYe5-tHFR-29" value="" style="endArrow=classic;html=1;rounded=0;entryX=0.034;entryY=0.019;entryDx=0;entryDy=0;entryPerimeter=0;" parent="1" edge="1">
          <mxGeometry width="50" height="50" relative="1" as="geometry">
            <mxPoint x="429" y="78" as="sourcePoint" />
            <mxPoint x="591.7199999999998" y="77.78999999999996" as="targetPoint" />
          </mxGeometry>
        </mxCell>
        <mxCell id="zpItI6iiQwFAYe5-tHFR-30" value="" style="endArrow=classic;html=1;rounded=0;" parent="1" edge="1">
          <mxGeometry width="50" height="50" relative="1" as="geometry">
            <mxPoint x="430" y="245.5" as="sourcePoint" />
            <mxPoint x="590" y="246" as="targetPoint" />
          </mxGeometry>
        </mxCell>
        <mxCell id="zpItI6iiQwFAYe5-tHFR-31" value="" style="endArrow=classic;html=1;rounded=0;" parent="1" edge="1">
          <mxGeometry width="50" height="50" relative="1" as="geometry">
            <mxPoint x="430" y="335.5" as="sourcePoint" />
            <mxPoint x="590" y="336" as="targetPoint" />
          </mxGeometry>
        </mxCell>
        <mxCell id="zpItI6iiQwFAYe5-tHFR-32" value="" style="endArrow=classic;html=1;rounded=0;" parent="1" edge="1">
          <mxGeometry width="50" height="50" relative="1" as="geometry">
            <mxPoint x="430" y="425.5" as="sourcePoint" />
            <mxPoint x="590" y="426" as="targetPoint" />
          </mxGeometry>
        </mxCell>
        <mxCell id="zpItI6iiQwFAYe5-tHFR-35" value="&lt;b&gt;API Gateway&lt;br&gt;&lt;/b&gt;" style="sketch=0;points=[[0,0,0],[0.25,0,0],[0.5,0,0],[0.75,0,0],[1,0,0],[0,1,0],[0.25,1,0],[0.5,1,0],[0.75,1,0],[1,1,0],[0,0.25,0],[0,0.5,0],[0,0.75,0],[1,0.25,0],[1,0.5,0],[1,0.75,0]];outlineConnect=0;fontColor=#232F3E;gradientColor=#945DF2;gradientDirection=north;fillColor=#5A30B5;strokeColor=#ffffff;dashed=0;verticalLabelPosition=bottom;verticalAlign=top;align=center;html=1;fontSize=12;fontStyle=0;aspect=fixed;shape=mxgraph.aws4.resourceIcon;resIcon=mxgraph.aws4.api_gateway;" parent="1" vertex="1">
          <mxGeometry x="120" y="216" width="114" height="114" as="geometry" />
        </mxCell>
        <mxCell id="zpItI6iiQwFAYe5-tHFR-40" value="" style="endArrow=classic;html=1;rounded=0;entryX=0;entryY=0.5;entryDx=0;entryDy=0;" parent="1" target="zpItI6iiQwFAYe5-tHFR-6" edge="1">
          <mxGeometry width="50" height="50" relative="1" as="geometry">
            <mxPoint x="234" y="230" as="sourcePoint" />
            <mxPoint x="284" y="180" as="targetPoint" />
          </mxGeometry>
        </mxCell>
        <mxCell id="zpItI6iiQwFAYe5-tHFR-41" value="" style="endArrow=classic;html=1;rounded=0;entryX=0;entryY=0.592;entryDx=0;entryDy=0;entryPerimeter=0;exitX=1;exitY=0.25;exitDx=0;exitDy=0;exitPerimeter=0;" parent="1" source="zpItI6iiQwFAYe5-tHFR-35" target="zpItI6iiQwFAYe5-tHFR-4" edge="1">
          <mxGeometry width="50" height="50" relative="1" as="geometry">
            <mxPoint x="234" y="310" as="sourcePoint" />
            <mxPoint x="308" y="180" as="targetPoint" />
          </mxGeometry>
        </mxCell>
        <mxCell id="zpItI6iiQwFAYe5-tHFR-42" value="" style="endArrow=classic;html=1;rounded=0;entryX=0;entryY=0.5;entryDx=0;entryDy=0;exitX=1;exitY=0.5;exitDx=0;exitDy=0;exitPerimeter=0;" parent="1" target="zpItI6iiQwFAYe5-tHFR-14" edge="1">
          <mxGeometry width="50" height="50" relative="1" as="geometry">
            <mxPoint x="234" y="272" as="sourcePoint" />
            <mxPoint x="310" y="269" as="targetPoint" />
          </mxGeometry>
        </mxCell>
        <mxCell id="zpItI6iiQwFAYe5-tHFR-43" value="" style="endArrow=classic;html=1;rounded=0;entryX=0;entryY=0.5;entryDx=0;entryDy=0;" parent="1" source="zpItI6iiQwFAYe5-tHFR-35" target="zpItI6iiQwFAYe5-tHFR-11" edge="1">
          <mxGeometry width="50" height="50" relative="1" as="geometry">
            <mxPoint x="270" y="310" as="sourcePoint" />
            <mxPoint x="308" y="170" as="targetPoint" />
          </mxGeometry>
        </mxCell>
        <mxCell id="zpItI6iiQwFAYe5-tHFR-44" value="" style="endArrow=classic;html=1;rounded=0;entryX=0;entryY=0.5;entryDx=0;entryDy=0;" parent="1" target="zpItI6iiQwFAYe5-tHFR-17" edge="1">
          <mxGeometry width="50" height="50" relative="1" as="geometry">
            <mxPoint x="230" y="310" as="sourcePoint" />
            <mxPoint x="244" y="390" as="targetPoint" />
          </mxGeometry>
        </mxCell>
        <mxCell id="zpItI6iiQwFAYe5-tHFR-45" value="" style="shadow=0;dashed=0;html=1;strokeColor=none;fillColor=#4495D1;labelPosition=center;verticalLabelPosition=bottom;verticalAlign=top;align=center;outlineConnect=0;shape=mxgraph.veeam.2d.web_ui;" parent="1" vertex="1">
          <mxGeometry x="-90" y="222.5" width="90" height="105.5" as="geometry" />
        </mxCell>
        <mxCell id="zpItI6iiQwFAYe5-tHFR-46" value="" style="endArrow=classic;html=1;rounded=0;" parent="1" source="zpItI6iiQwFAYe5-tHFR-45" target="zpItI6iiQwFAYe5-tHFR-35" edge="1">
          <mxGeometry width="50" height="50" relative="1" as="geometry">
            <mxPoint y="278.25" as="sourcePoint" />
            <mxPoint x="76" y="276.25" as="targetPoint" />
          </mxGeometry>
        </mxCell>
        <mxCell id="zpItI6iiQwFAYe5-tHFR-47" value="" style="outlineConnect=0;dashed=0;verticalLabelPosition=bottom;verticalAlign=top;align=center;html=1;shape=mxgraph.aws3.elasticsearch_service;fillColor=#F58534;gradientColor=none;" parent="1" vertex="1">
          <mxGeometry x="230" y="510" width="67.5" height="81" as="geometry" />
        </mxCell>
        <mxCell id="zpItI6iiQwFAYe5-tHFR-48" value="" style="image;aspect=fixed;html=1;points=[];align=center;fontSize=12;image=img/lib/azure2/management_governance/Monitor.svg;" parent="1" vertex="1">
          <mxGeometry x="340" y="518.5" width="64" height="64" as="geometry" />
        </mxCell>
      </root>
    </mxGraphModel>
  </diagram>
</mxfile>
